<mxfile host="Electron" agent="Mozilla/5.0 (Windows NT 10.0; Win64; x64) AppleWebKit/537.36 (KHTML, like Gecko) draw.io/26.2.15 Chrome/134.0.6998.205 Electron/35.2.1 Safari/537.36" version="26.2.15">
  <diagram id="C5RBs43oDa-KdzZeNtuy" name="Page-1">
    <mxGraphModel dx="728" dy="1197" grid="1" gridSize="10" guides="1" tooltips="1" connect="1" arrows="1" fold="1" page="1" pageScale="1" pageWidth="827" pageHeight="1169" math="0" shadow="0">
      <root>
        <mxCell id="WIyWlLk6GJQsqaUBKTNV-0" />
        <mxCell id="WIyWlLk6GJQsqaUBKTNV-1" parent="WIyWlLk6GJQsqaUBKTNV-0" />
        <mxCell id="JmT5XVyvvCb6TlGyIQfu-1" value="" style="rounded=0;html=1;jettySize=auto;orthogonalLoop=1;fontSize=11;endArrow=block;endFill=0;endSize=8;strokeWidth=1;shadow=0;labelBackgroundColor=none;edgeStyle=orthogonalEdgeStyle;" parent="WIyWlLk6GJQsqaUBKTNV-1" target="JmT5XVyvvCb6TlGyIQfu-5" edge="1">
          <mxGeometry relative="1" as="geometry">
            <mxPoint x="140" y="50" as="sourcePoint" />
          </mxGeometry>
        </mxCell>
        <mxCell id="JmT5XVyvvCb6TlGyIQfu-2" value="스킬 키 입력" style="rounded=1;whiteSpace=wrap;html=1;fontSize=12;glass=0;strokeWidth=1;shadow=0;" parent="WIyWlLk6GJQsqaUBKTNV-1" vertex="1">
          <mxGeometry x="20" y="30" width="120" height="40" as="geometry" />
        </mxCell>
        <mxCell id="JmT5XVyvvCb6TlGyIQfu-3" value="No" style="edgeStyle=orthogonalEdgeStyle;rounded=0;html=1;jettySize=auto;orthogonalLoop=1;fontSize=11;endArrow=block;endFill=0;endSize=8;strokeWidth=1;shadow=0;labelBackgroundColor=none;" parent="WIyWlLk6GJQsqaUBKTNV-1" source="JmT5XVyvvCb6TlGyIQfu-5" edge="1">
          <mxGeometry x="0.258" y="10" relative="1" as="geometry">
            <mxPoint as="offset" />
            <mxPoint x="360" y="50" as="targetPoint" />
          </mxGeometry>
        </mxCell>
        <mxCell id="JmT5XVyvvCb6TlGyIQfu-28" value="" style="edgeStyle=orthogonalEdgeStyle;rounded=0;orthogonalLoop=1;jettySize=auto;html=1;" parent="WIyWlLk6GJQsqaUBKTNV-1" source="JmT5XVyvvCb6TlGyIQfu-5" target="JmT5XVyvvCb6TlGyIQfu-27" edge="1">
          <mxGeometry relative="1" as="geometry" />
        </mxCell>
        <mxCell id="JmT5XVyvvCb6TlGyIQfu-5" value="스킬 게이지&amp;nbsp;&lt;div&gt;=&lt;/div&gt;&lt;div&gt;100&lt;/div&gt;" style="rhombus;whiteSpace=wrap;html=1;shadow=0;fontFamily=Helvetica;fontSize=12;align=center;strokeWidth=1;spacing=6;spacingTop=-4;" parent="WIyWlLk6GJQsqaUBKTNV-1" vertex="1">
          <mxGeometry x="200" y="10" width="80" height="80" as="geometry" />
        </mxCell>
        <mxCell id="JmT5XVyvvCb6TlGyIQfu-6" value="발동 안됨" style="rounded=1;whiteSpace=wrap;html=1;fontSize=12;glass=0;strokeWidth=1;shadow=0;" parent="WIyWlLk6GJQsqaUBKTNV-1" vertex="1">
          <mxGeometry x="360" y="30" width="120" height="40" as="geometry" />
        </mxCell>
        <mxCell id="JmT5XVyvvCb6TlGyIQfu-17" value="" style="edgeStyle=orthogonalEdgeStyle;rounded=0;orthogonalLoop=1;jettySize=auto;html=1;" parent="WIyWlLk6GJQsqaUBKTNV-1" source="JmT5XVyvvCb6TlGyIQfu-8" target="JmT5XVyvvCb6TlGyIQfu-16" edge="1">
          <mxGeometry relative="1" as="geometry" />
        </mxCell>
        <mxCell id="JmT5XVyvvCb6TlGyIQfu-35" value="Yes" style="edgeLabel;html=1;align=center;verticalAlign=middle;resizable=0;points=[];" parent="JmT5XVyvvCb6TlGyIQfu-17" vertex="1" connectable="0">
          <mxGeometry x="-0.1962" relative="1" as="geometry">
            <mxPoint y="-10" as="offset" />
          </mxGeometry>
        </mxCell>
        <mxCell id="JmT5XVyvvCb6TlGyIQfu-51" value="" style="edgeStyle=orthogonalEdgeStyle;rounded=0;orthogonalLoop=1;jettySize=auto;html=1;" parent="WIyWlLk6GJQsqaUBKTNV-1" source="JmT5XVyvvCb6TlGyIQfu-8" edge="1">
          <mxGeometry relative="1" as="geometry">
            <mxPoint x="365" y="620" as="targetPoint" />
          </mxGeometry>
        </mxCell>
        <mxCell id="JmT5XVyvvCb6TlGyIQfu-56" value="No" style="edgeLabel;html=1;align=center;verticalAlign=middle;resizable=0;points=[];" parent="JmT5XVyvvCb6TlGyIQfu-51" vertex="1" connectable="0">
          <mxGeometry x="-0.1511" y="-1" relative="1" as="geometry">
            <mxPoint x="-4" y="-4" as="offset" />
          </mxGeometry>
        </mxCell>
        <mxCell id="JmT5XVyvvCb6TlGyIQfu-8" value="스킬LV3&amp;nbsp;&lt;div&gt;이상인가?&lt;/div&gt;" style="rhombus;whiteSpace=wrap;html=1;shadow=0;fontFamily=Helvetica;fontSize=12;align=center;strokeWidth=1;spacing=6;spacingTop=-4;" parent="WIyWlLk6GJQsqaUBKTNV-1" vertex="1">
          <mxGeometry x="325" y="390" width="80" height="80" as="geometry" />
        </mxCell>
        <mxCell id="JmT5XVyvvCb6TlGyIQfu-49" value="" style="edgeStyle=orthogonalEdgeStyle;rounded=0;orthogonalLoop=1;jettySize=auto;html=1;" parent="WIyWlLk6GJQsqaUBKTNV-1" source="JmT5XVyvvCb6TlGyIQfu-16" target="JmT5XVyvvCb6TlGyIQfu-58" edge="1">
          <mxGeometry relative="1" as="geometry">
            <mxPoint x="300" y="620" as="targetPoint" />
            <Array as="points">
              <mxPoint x="485" y="620" />
            </Array>
          </mxGeometry>
        </mxCell>
        <mxCell id="JmT5XVyvvCb6TlGyIQfu-16" value="탄막 제거" style="whiteSpace=wrap;html=1;shadow=0;strokeWidth=1;spacing=6;spacingTop=-4;" parent="WIyWlLk6GJQsqaUBKTNV-1" vertex="1">
          <mxGeometry x="455" y="400" width="60" height="60" as="geometry" />
        </mxCell>
        <mxCell id="JmT5XVyvvCb6TlGyIQfu-25" value="종료" style="ellipse;whiteSpace=wrap;html=1;shadow=0;strokeWidth=1;spacing=6;spacingTop=-4;" parent="WIyWlLk6GJQsqaUBKTNV-1" vertex="1">
          <mxGeometry x="200" y="890" width="80" height="80" as="geometry" />
        </mxCell>
        <mxCell id="JmT5XVyvvCb6TlGyIQfu-30" value="" style="edgeStyle=orthogonalEdgeStyle;rounded=0;orthogonalLoop=1;jettySize=auto;html=1;" parent="WIyWlLk6GJQsqaUBKTNV-1" source="JmT5XVyvvCb6TlGyIQfu-27" target="JmT5XVyvvCb6TlGyIQfu-29" edge="1">
          <mxGeometry relative="1" as="geometry" />
        </mxCell>
        <mxCell id="JmT5XVyvvCb6TlGyIQfu-27" value="캐릭터 전면 방향 설정" style="whiteSpace=wrap;html=1;shadow=0;strokeWidth=1;spacing=6;spacingTop=-4;" parent="WIyWlLk6GJQsqaUBKTNV-1" vertex="1">
          <mxGeometry x="180" y="120" width="120" height="60" as="geometry" />
        </mxCell>
        <mxCell id="JmT5XVyvvCb6TlGyIQfu-32" value="" style="edgeStyle=orthogonalEdgeStyle;rounded=0;orthogonalLoop=1;jettySize=auto;html=1;" parent="WIyWlLk6GJQsqaUBKTNV-1" source="JmT5XVyvvCb6TlGyIQfu-29" target="JmT5XVyvvCb6TlGyIQfu-31" edge="1">
          <mxGeometry relative="1" as="geometry" />
        </mxCell>
        <mxCell id="JmT5XVyvvCb6TlGyIQfu-29" value="화염방사 이펙트&lt;div&gt;출력 시작&lt;/div&gt;" style="whiteSpace=wrap;html=1;shadow=0;strokeWidth=1;spacing=6;spacingTop=-4;" parent="WIyWlLk6GJQsqaUBKTNV-1" vertex="1">
          <mxGeometry x="180" y="200" width="120" height="60" as="geometry" />
        </mxCell>
        <mxCell id="JmT5XVyvvCb6TlGyIQfu-40" value="" style="edgeStyle=orthogonalEdgeStyle;rounded=0;orthogonalLoop=1;jettySize=auto;html=1;" parent="WIyWlLk6GJQsqaUBKTNV-1" source="JmT5XVyvvCb6TlGyIQfu-31" target="JmT5XVyvvCb6TlGyIQfu-39" edge="1">
          <mxGeometry relative="1" as="geometry" />
        </mxCell>
        <mxCell id="JmT5XVyvvCb6TlGyIQfu-31" value="범위 내 오브 젝트&lt;div&gt;&amp;nbsp;검사&lt;/div&gt;" style="whiteSpace=wrap;html=1;shadow=0;strokeWidth=1;spacing=6;spacingTop=-4;" parent="WIyWlLk6GJQsqaUBKTNV-1" vertex="1">
          <mxGeometry x="180" y="280" width="120" height="60" as="geometry" />
        </mxCell>
        <mxCell id="JmT5XVyvvCb6TlGyIQfu-41" value="" style="edgeStyle=orthogonalEdgeStyle;rounded=0;orthogonalLoop=1;jettySize=auto;html=1;" parent="WIyWlLk6GJQsqaUBKTNV-1" source="JmT5XVyvvCb6TlGyIQfu-39" target="JmT5XVyvvCb6TlGyIQfu-8" edge="1">
          <mxGeometry relative="1" as="geometry" />
        </mxCell>
        <mxCell id="JmT5XVyvvCb6TlGyIQfu-55" value="No" style="edgeLabel;html=1;align=center;verticalAlign=middle;resizable=0;points=[];" parent="JmT5XVyvvCb6TlGyIQfu-41" vertex="1" connectable="0">
          <mxGeometry x="-0.6593" relative="1" as="geometry">
            <mxPoint x="12" y="-10" as="offset" />
          </mxGeometry>
        </mxCell>
        <mxCell id="JmT5XVyvvCb6TlGyIQfu-43" value="" style="edgeStyle=orthogonalEdgeStyle;rounded=0;orthogonalLoop=1;jettySize=auto;html=1;" parent="WIyWlLk6GJQsqaUBKTNV-1" source="JmT5XVyvvCb6TlGyIQfu-39" target="JmT5XVyvvCb6TlGyIQfu-42" edge="1">
          <mxGeometry relative="1" as="geometry" />
        </mxCell>
        <mxCell id="7S8r9HW1mhYX4_HcTEgN-0" value="Yes" style="edgeLabel;html=1;align=center;verticalAlign=middle;resizable=0;points=[];" parent="JmT5XVyvvCb6TlGyIQfu-43" vertex="1" connectable="0">
          <mxGeometry x="0.2076" y="-2" relative="1" as="geometry">
            <mxPoint x="22" as="offset" />
          </mxGeometry>
        </mxCell>
        <mxCell id="JmT5XVyvvCb6TlGyIQfu-39" value="오브젝트가&lt;div&gt;적인가?&lt;/div&gt;" style="rhombus;whiteSpace=wrap;html=1;shadow=0;strokeWidth=1;spacing=6;spacingTop=-4;" parent="WIyWlLk6GJQsqaUBKTNV-1" vertex="1">
          <mxGeometry x="200" y="390" width="80" height="80" as="geometry" />
        </mxCell>
        <mxCell id="JmT5XVyvvCb6TlGyIQfu-59" value="" style="edgeStyle=orthogonalEdgeStyle;rounded=0;orthogonalLoop=1;jettySize=auto;html=1;" parent="WIyWlLk6GJQsqaUBKTNV-1" source="JmT5XVyvvCb6TlGyIQfu-42" target="JmT5XVyvvCb6TlGyIQfu-58" edge="1">
          <mxGeometry relative="1" as="geometry" />
        </mxCell>
        <mxCell id="JmT5XVyvvCb6TlGyIQfu-42" value="다단히트 데미지" style="whiteSpace=wrap;html=1;shadow=0;strokeWidth=1;spacing=6;spacingTop=-4;" parent="WIyWlLk6GJQsqaUBKTNV-1" vertex="1">
          <mxGeometry x="180" y="500" width="120" height="60" as="geometry" />
        </mxCell>
        <mxCell id="JmT5XVyvvCb6TlGyIQfu-54" value="" style="edgeStyle=orthogonalEdgeStyle;rounded=0;orthogonalLoop=1;jettySize=auto;html=1;" parent="WIyWlLk6GJQsqaUBKTNV-1" source="JmT5XVyvvCb6TlGyIQfu-53" target="JmT5XVyvvCb6TlGyIQfu-25" edge="1">
          <mxGeometry relative="1" as="geometry" />
        </mxCell>
        <mxCell id="JmT5XVyvvCb6TlGyIQfu-53" value="게이지 초기화&lt;br&gt;&lt;div&gt;및&lt;/div&gt;&lt;div&gt;궁극기 종료&lt;/div&gt;" style="whiteSpace=wrap;html=1;shadow=0;strokeWidth=1;spacing=6;spacingTop=-4;" parent="WIyWlLk6GJQsqaUBKTNV-1" vertex="1">
          <mxGeometry x="200" y="810" width="80" height="60" as="geometry" />
        </mxCell>
        <mxCell id="JmT5XVyvvCb6TlGyIQfu-61" value="" style="edgeStyle=orthogonalEdgeStyle;rounded=0;orthogonalLoop=1;jettySize=auto;html=1;" parent="WIyWlLk6GJQsqaUBKTNV-1" source="JmT5XVyvvCb6TlGyIQfu-58" target="JmT5XVyvvCb6TlGyIQfu-60" edge="1">
          <mxGeometry relative="1" as="geometry" />
        </mxCell>
        <mxCell id="JmT5XVyvvCb6TlGyIQfu-58" value="남은 시간&lt;div&gt;=&lt;/div&gt;&lt;div&gt;0&lt;/div&gt;" style="rhombus;whiteSpace=wrap;html=1;shadow=0;strokeWidth=1;spacing=6;spacingTop=-4;" parent="WIyWlLk6GJQsqaUBKTNV-1" vertex="1">
          <mxGeometry x="200" y="580" width="80" height="80" as="geometry" />
        </mxCell>
        <mxCell id="JmT5XVyvvCb6TlGyIQfu-62" value="" style="edgeStyle=orthogonalEdgeStyle;rounded=0;orthogonalLoop=1;jettySize=auto;html=1;" parent="WIyWlLk6GJQsqaUBKTNV-1" source="JmT5XVyvvCb6TlGyIQfu-60" target="JmT5XVyvvCb6TlGyIQfu-53" edge="1">
          <mxGeometry relative="1" as="geometry" />
        </mxCell>
        <mxCell id="JmT5XVyvvCb6TlGyIQfu-60" value="화염 방사 종료 및 이펙트 제거" style="whiteSpace=wrap;html=1;shadow=0;strokeWidth=1;spacing=6;spacingTop=-4;" parent="WIyWlLk6GJQsqaUBKTNV-1" vertex="1">
          <mxGeometry x="195" y="700" width="90" height="60" as="geometry" />
        </mxCell>
      </root>
    </mxGraphModel>
  </diagram>
</mxfile>
